<svg id="vector" xmlns="http://www.w3.org/2000/svg" width="922.96" height="922.96" viewBox="0 0 922.96 922.96"><path fill="#073000" d="M103.32,4H705.18A216.14,216.14 0,0 1,921.32 220.1V823.31A99.64,99.64 0,0 1,821.68 923H310.18A307.86,307.86 0,0 1,2.32 615.1V105a101,101 0,0 1,101 -101Z" id="path_0"/><path fill="#30ff00" d="M301.51,809.16h148.6L450.11,702.11L345.94,702.11A125.56,125.56 0,0 1,220.38 576.55L220.38,220.85L450.11,220.85v-107L113.8,113.85L113.8,621.44C113.8,725.12 197.84,809.16 301.51,809.16Z" id="path_1"/><path fill="#30ff00" d="M702.11,113.8L472.85,113.8L472.85,809.16L579.9,809.16L579.9,514.53L702.11,514.53A107.05,107.05 0,0 0,809.16 407.44h0L809.16,220.85h0a107.05,107.05 0,0 0,-107.05 -107ZM655.76,407.44L579.9,407.44L579.9,220.85h75.86a46.35,46.35 0,0 1,46.35 46.35v93.93A46.35,46.35 0,0 1,655.76 407.44Z" id="path_2"/><path fill="#20ff00" d="M702.11,809.16" id="path_3"/><path fill="#30ff00" d="M701.6,922.94L809.16,922.94L809.16,724.8c0,-174.44 -229.26,-210.27 -229.26,-210.27s122.21,31.1 122.21,210.27Z" id="path_4"/><path fill="#000000" d="M659.08,902.96L276.92,902.96c-141.89,0 -256.92,-115 -256.92,-256.92v-626L763.28,20.04A139.68,139.68 0,0 1,902.96 159.68L902.96,902.96L851.68,902.96" fill-opacity="0" stroke-linejoin="round" stroke-linecap="square" stroke="#30ff00" stroke-width="40" id="path_5"/></svg>